<svg xmlns="http://www.w3.org/2000/svg" width="32" height="32"><path fill="#4d5ae5" d="M32 16c0 4.42-1.8 8.42-4.69 11.31a15.96 15.96 0 0 1-22.62 0 15.95 15.95 0 0 1 0-22.63C7.59 1.8 11.59 0 16 0c4.42 0 8.42 1.8 11.31 4.69S32 11.59 32 16z"/><path fill="#f4f4fd" d="M25.6 10.05c-.71.31-1.48.52-2.27.62a3.92 3.92 0 0 0 1.73-2.18c-.76.46-1.6.78-2.5.96a3.94 3.94 0 0 0-6.71 3.58 11.14 11.14 0 0 1-8.11-4.11 3.96 3.96 0 0 0 1.2 5.26 3.89 3.89 0 0 1-1.77-.49v.05c0 1.91 1.36 3.5 3.15 3.86a3.91 3.91 0 0 1-1.78.07 3.97 3.97 0 0 0 3.68 2.74 7.9 7.9 0 0 1-5.82 1.62 11.09 11.09 0 0 0 6.04 1.77c7.24 0 11.2-6 11.2-11.2l-.01-.5a7.85 7.85 0 0 0 1.97-2.05z"/></svg>